<?xml version="1.0" encoding="utf-8"?>
<!-- Generator: Adobe Illustrator 25.0.0, SVG Export Plug-In . SVG Version: 6.00 Build 0)  -->
<svg version="1.1" id="Capa_1" xmlns="http://www.w3.org/2000/svg" xmlns:xlink="http://www.w3.org/1999/xlink" x="0px" y="0px"
	 viewBox="0 0 24 24" style="enable-background:new 0 0 24 24;" xml:space="preserve">
<defs><linearGradient id="grad1" x1="0%" y1="100%" x2="100%" y2="0%"> <stop offset="0%" style="stop-color:#f2e26b;stop-opacity:1"/> <stop offset="100%" style="stop-color:#d09246;stop-opacity:1" /></linearGradient></defs><path fill="url(#grad1)" d="M10.4,21.5c-1.1,0-2.1-0.2-3.1-0.6s-1.8-1-2.5-1.7s-1.3-1.6-1.7-2.5s-0.6-2-0.6-3.1s0.2-2.1,0.6-3.1s1-1.8,1.7-2.5
	s1.6-1.3,2.5-1.7s2-0.6,3.1-0.6c0.3,0,0.6,0,0.9,0.1c0.3,0,0.6,0.1,0.9,0.2v1.8c-0.3-0.1-0.6-0.2-0.9-0.2c-0.3,0-0.6-0.1-0.9-0.1
	C8.7,7.4,7.2,8,6,9.2s-1.8,2.6-1.8,4.4S4.8,16.8,6,18s2.6,1.8,4.4,1.8s3.2-0.6,4.4-1.8s1.8-2.6,1.8-4.4c0-0.2,0-0.3,0-0.4
	c0-0.1,0-0.3-0.1-0.4h1.8c0,0.2,0,0.3,0,0.4v0.4c0,1.1-0.2,2.1-0.6,3.1s-1,1.8-1.7,2.5s-1.6,1.3-2.5,1.7S11.5,21.5,10.4,21.5z
	 M13.2,17.8L9.4,14V8.6h2v4.6l3.2,3.2L13.2,17.8z M17.1,11.9v-4h-4V5.2h4v-4h2.7v4h4v2.7h-4v4H17.1z"/>
</svg>
