<?xml version="1.0" encoding="utf-8"?>
<!-- Generator: Adobe Illustrator 25.0.0, SVG Export Plug-In . SVG Version: 6.00 Build 0)  -->
<svg version="1.1" id="Capa_1" xmlns="http://www.w3.org/2000/svg" xmlns:xlink="http://www.w3.org/1999/xlink" x="0px" y="0px"
	 viewBox="0 0 24 24" style="enable-background:new 0 0 24 24;" xml:space="preserve">
<defs><linearGradient id="grad1" x1="0%" y1="100%" x2="100%" y2="0%"> <stop offset="0%" style="stop-color:#f2e26b;stop-opacity:1"/> <stop offset="100%" style="stop-color:#d09246;stop-opacity:1" /></linearGradient></defs><path fill="url(#grad1)" d="M8.8,22.4c-1,0-1.9-0.2-2.8-0.6c-0.9-0.4-1.6-0.9-2.3-1.5c-0.6-0.6-1.1-1.4-1.5-2.3s-0.6-1.8-0.6-2.8s0.2-1.9,0.6-2.8
	c0.4-0.9,0.9-1.6,1.5-2.3c0.6-0.6,1.4-1.1,2.3-1.5c0.9-0.4,1.8-0.6,2.8-0.6c0.3,0,0.5,0,0.8,0c0.3,0,0.5,0.1,0.8,0.1v1.6
	C10.2,10,9.9,10,9.6,9.9c-0.3,0-0.5-0.1-0.8-0.1c-1.5,0-2.9,0.5-3.9,1.6s-1.6,2.4-1.6,3.9c0,1.5,0.5,2.9,1.6,3.9s2.4,1.6,3.9,1.6
	s2.9-0.5,3.9-1.6s1.6-2.4,1.6-3.9c0-0.1,0-0.3,0-0.4c0-0.1,0-0.2-0.1-0.4h1.6c0,0.1,0,0.3,0,0.4v0.4c0,1-0.2,1.9-0.6,2.8
	c-0.4,0.9-0.9,1.6-1.5,2.3c-0.6,0.6-1.4,1.1-2.3,1.5C10.7,22.3,9.8,22.4,8.8,22.4z M11.3,19.1l-3.4-3.4v-4.8h1.8V15l2.9,2.9
	L11.3,19.1z M16.4,11.9v-4h-4V5.2h4v-4H19v4h4v2.7h-4v4H16.4z"/>
</svg>
