<?xml version="1.0" encoding="utf-8"?>
<!-- Generator: Adobe Illustrator 25.0.0, SVG Export Plug-In . SVG Version: 6.00 Build 0)  -->
<svg version="1.1" id="Capa_1" xmlns="http://www.w3.org/2000/svg" xmlns:xlink="http://www.w3.org/1999/xlink" x="0px" y="0px"
	 viewBox="0 0 24 24" style="enable-background:new 0 0 24 24;" xml:space="preserve">
<defs><linearGradient id="grad1" x1="0%" y1="100%" x2="100%" y2="0%"> <stop offset="0%" style="stop-color:#f2e26b;stop-opacity:1"/> <stop offset="100%" style="stop-color:#d09246;stop-opacity:1" /></linearGradient></defs><path fill="url(#grad1)" d="M9.4,21.3c-1.1,0-2.1-0.2-3.1-0.6s-1.8-1-2.5-1.7c-0.7-0.7-1.3-1.6-1.7-2.5s-0.6-2-0.6-3.1s0.2-2.1,0.6-3.1s1-1.8,1.7-2.5
	s1.6-1.3,2.5-1.7c1-0.4,2-0.6,3.1-0.6c0.3,0,0.6,0,0.9,0.1c0.3,0,0.6,0.1,0.9,0.2v1.8c-0.3-0.1-0.6-0.2-0.9-0.2S9.7,7.2,9.4,7.2
	C7.6,7.2,6.2,7.8,5,9s-1.8,2.6-1.8,4.4s0.6,3.2,1.8,4.4s2.6,1.8,4.4,1.8s3.2-0.6,4.4-1.8s1.8-2.6,1.8-4.4c0-0.2,0-0.3,0-0.4
	c0-0.1,0-0.3-0.1-0.4h1.8c0,0.2,0,0.3,0,0.4v0.4c0,1.1-0.2,2.1-0.6,3.1c-0.4,1-1,1.8-1.7,2.5c-0.7,0.7-1.6,1.3-2.5,1.7
	S10.5,21.3,9.4,21.3z M11.8,17.1l-3.3-3.3V9h1.8V13l2.8,2.8L11.8,17.1z"/>
<path fill="url(#grad1)" d="M16.3,11.6L16,9.9c-0.1,0-0.2-0.1-0.4-0.2c-0.1-0.1-0.2-0.1-0.3-0.2l-1.5,0.7l-1.4-2.5l1.4-1c0-0.1,0-0.1,0-0.2
	c0-0.1,0-0.1,0-0.2c0-0.1,0-0.1,0-0.2c0-0.1,0-0.1,0-0.2l-1.4-1l1.4-2.5l1.6,0.7C15.4,3,15.5,3,15.7,2.9c0.1-0.1,0.2-0.1,0.3-0.2
	L16.3,1h2.8l0.2,1.7c0.1,0,0.2,0.1,0.4,0.2C19.8,3,19.9,3,20,3.1l1.6-0.7L23,4.9l-1.4,1c0,0.1,0,0.1,0,0.2c0,0.1,0,0.1,0,0.2
	c0,0.1,0,0.1,0,0.2c0,0.1,0,0.1,0,0.2l1.4,1l-1.4,2.5L20,9.5c-0.1,0.1-0.2,0.2-0.3,0.2c-0.1,0.1-0.2,0.1-0.4,0.2l-0.2,1.7H16.3z
	 M17.7,8c0.5,0,0.9-0.2,1.2-0.5c0.3-0.3,0.5-0.7,0.5-1.2c0-0.5-0.2-0.9-0.5-1.2c-0.3-0.3-0.7-0.5-1.2-0.5c-0.5,0-0.9,0.2-1.2,0.5
	C16.1,5.4,16,5.8,16,6.3c0,0.5,0.2,0.9,0.5,1.2C16.8,7.8,17.2,8,17.7,8z"/>
</svg>
