<?xml version="1.0" encoding="utf-8"?>
<!-- Generator: Adobe Illustrator 25.0.0, SVG Export Plug-In . SVG Version: 6.00 Build 0)  -->
<svg version="1.1" id="Capa_1" xmlns="http://www.w3.org/2000/svg" xmlns:xlink="http://www.w3.org/1999/xlink" x="0px" y="0px"
	 viewBox="0 0 24 24" style="enable-background:new 0 0 24 24;" xml:space="preserve">
<defs><linearGradient id="grad1" x1="0%" y1="100%" x2="100%" y2="0%"> <stop offset="0%" style="stop-color:#f2e26b;stop-opacity:1"/> <stop offset="100%" style="stop-color:#d09246;stop-opacity:1" /></linearGradient></defs><path fill="url(#grad1)" d="M11.3,20.7c-1.1,0-2.1-0.2-3.1-0.6c-1-0.4-1.8-1-2.5-1.7S4.4,16.9,4,15.9s-0.6-2-0.6-3.1S3.6,10.7,4,9.7s1-1.8,1.7-2.5
	s1.6-1.3,2.5-1.7c1-0.4,2-0.6,3.1-0.6c0.3,0,0.6,0,0.9,0.1C12.5,5,12.8,5,13,5.1v1.8c-0.3-0.1-0.6-0.2-0.9-0.2
	c-0.3,0-0.6-0.1-0.9-0.1c-1.7,0-3.2,0.6-4.4,1.8s-1.8,2.6-1.8,4.4s0.6,3.2,1.8,4.4S9.6,19,11.3,19s3.2-0.6,4.4-1.8s1.8-2.6,1.8-4.4
	c0-0.2,0-0.3,0-0.4c0-0.1,0-0.3-0.1-0.4h1.8c0,0.2,0,0.3,0,0.4v0.4c0,1.1-0.2,2.1-0.6,3.1s-1,1.8-1.7,2.5c-0.7,0.7-1.6,1.3-2.5,1.7
	C13.4,20.5,12.4,20.7,11.3,20.7z M13.8,16.5l-3.3-3.3V8.4h1.8v4l2.8,2.8L13.8,16.5z"/>
<path fill="url(#grad1)" d="M17.5,9.6V3.5l-2,2l-1.1-1.1l3.8-3.8L22,4.4L21,5.4l-2-2v6.1H17.5z"/>
</svg>
