<svg xmlns="http://www.w3.org/2000/svg" height="40" width="40"><defs><linearGradient id="grad1" x1="0%" y1="100%" x2="100%" y2="0%"> <stop offset="0%" style="stop-color:#d6fb2a;stop-opacity:1"/> <stop offset="100%" style="stop-color:#e4ff00;stop-opacity:1" /></linearGradient></defs><path fill="url(#grad1)" d="M35.667 20.583V32Q35.667 33.5 34.583 34.583Q33.5 35.667 32 35.667H8Q6.5 35.667 5.417 34.583Q4.333 33.5 4.333 32V8Q4.333 6.5 5.417 5.417Q6.5 4.333 8 4.333H19.417V8H8Q8 8 8 8Q8 8 8 8V32Q8 32 8 32Q8 32 8 32H32Q32 32 32 32Q32 32 32 32V20.583ZM16.625 25.958 14.042 23.375 29.458 8H22.208V4.333H35.667V17.792H32V10.583Z"/></svg>