<svg xmlns="http://www.w3.org/2000/svg" height="24" viewBox="0 -960 960 960" width="24"><defs><linearGradient id="grad1" x1="0%" y1="100%" x2="100%" y2="0%"> <stop offset="0%" style="stop-color:#f2e26b;stop-opacity:1"/> <stop offset="100%" style="stop-color:#d09246;stop-opacity:1" /></linearGradient></defs><path fill="url(#grad1)" d="M200-120q-51 0-72.5-45.5T138-250l222-270v-240h-40q-17 0-28.5-11.5T280-800q0-17 11.5-28.5T320-840h320q17 0 28.5 11.5T680-800q0 17-11.5 28.5T640-760h-40v240l222 270q32 39 10.5 84.5T760-120H200Zm0-80h560L520-492v-268h-80v268L200-200Zm280-280Z"/></svg>